<svg xmlns="http://www.w3.org/2000/svg" viewBox="0 0 240 240" width="100%" height="100%">
  <defs>
    <linearGradient id="i-grad" x1="0" y1="0" x2="0" y2="240" gradientUnits="userSpaceOnUse">
      <stop offset="0%" stop-color="#C5ED10" />
      <stop offset="100%" stop-color="#499C0E" />
    </linearGradient>
  </defs>

  <!-- 5-Point Lightbulb Rays -->
  <g stroke="url(#i-grad)" stroke-width="3.5" stroke-linecap="round">
    <line x1="160" y1="21" x2="160" y2="12" />
    <line x1="168.1" y1="24.9" x2="174.8" y2="18.2" />
    <line x1="171.5" y1="33" x2="181" y2="33" />
    <line x1="151.9" y1="24.9" x2="145.2" y2="18.2" />
    <line x1="148.5" y1="33" x2="139" y2="33" />
  </g>

  <!-- Lightbulb Base -->
  <circle cx="160" cy="33" r="9" fill="url(#i-grad)" />

  <!-- Continuous Coil Path -->
  <path d="
    M 160 33
    L 160 66
    A 7 7 0 0 1 153 73
    L 80 73
    A 7 7 0 0 0 80 87
    L 160 87
    A 7 7 0 0 1 160 101
    L 100 101
    A 7 7 0 0 0 100 115
    L 140 115
    A 7 7 0 0 1 140 129
    L 100 129
    A 7 7 0 0 0 100 143
    L 140 143
    A 7 7 0 0 1 140 157
    L 100 157
    A 7 7 0 0 0 100 171
    L 140 171
    A 7 7 0 0 1 140 185
    L 80 185
    A 7 7 0 0 0 80 199
    L 160 199
    A 7 7 0 0 1 160 213
    L 80 213
    A 7 7 0 0 0 80 227
    L 250 227
  " fill="none" stroke="url(#i-grad)" stroke-width="8.5" stroke-linecap="round" stroke-linejoin="round" />
</svg>
