<svg xmlns="http://www.w3.org/2000/svg" viewBox="0 0 100 100" width="100%" height="100%">
  <defs>
    <linearGradient id="i-grad" x1="0" y1="0" x2="0" y2="1">
      <stop offset="0%" stop-color="#b6e026" />
      <stop offset="100%" stop-color="#65a81e" />
    </linearGradient>
  </defs>
  <g stroke="url(#i-grad)" stroke-width="6.5" fill="none" stroke-linecap="round" stroke-linejoin="round">
    <line x1="50" y1="4" x2="50" y2="8" />
    <line x1="33" y1="10" x2="37" y2="14" />
    <line x1="67" y1="10" x2="63" y2="14" />
    <line x1="25" y1="23" x2="30" y2="23" />
    <line x1="75" y1="23" x2="70" y2="23" />
    <circle cx="50" cy="23" r="6" fill="url(#i-grad)" stroke="none" />
    <path d="M 50 28 L 50 33 C 50 35, 48 37, 45 37 L 25 37 A 5.5 5.5 0 0 0 25 48 L 75 48 A 5.5 5.5 0 0 1 75 59 L 25 59 A 5.5 5.5 0 0 0 25 70 L 75 70 A 5.5 5.5 0 0 1 75 81 L 25 81 A 5.5 5.5 0 0 0 25 92 L 85 92" />
  </g>
</svg>
